# xmcd
#
# Track frame offsets: 
#        150
#        16189
#        34518
#        51680
#        70713
#        89736
#        107770
#        130426
#
# Disc length: 2070 seconds
#
# Revision: 0
# Processed by: cddbd v1.5.2PL0 Copyright (c) Steve Scherf et al.
# Submitted via: ExactAudioCopyFreeDBPlugin 1.0
#
DISCID=6d081408
DTITLE=Shadow - Shadow [Japanese Edit]
DYEAR=1980
DGENRE=Soul
TTITLE0=Mystery Dancer
TTITLE1=I Can't Keep Holding Back (My Love)
TTITLE2=Hot City
TTITLE3=You Can Do It
TTITLE4=Can You Keep It Hot
TTITLE5=Sweet Movin' (In My Life)
TTITLE6=Beyond The Finish Line
TTITLE7=Village Destiny
EXTD=
EXTT0=
EXTT1=
EXTT2=
EXTT3=
EXTT4=
EXTT5=
EXTT6=
EXTT7=
PLAYORDER=
